<svg width="23" height="23" viewBox="0 0 23 23" fill="none" xmlns="http://www.w3.org/2000/svg">
<g clip-path="url(#clip0)">
<path d="M22.1016 10.6016H3.07452L6.22642 7.4649C6.57811 7.11491 6.57946 6.54606 6.22943 6.19436C5.8794 5.84263 5.3105 5.84132 4.95881 6.19131L0.264299 10.8632C0.263984 10.8635 0.26376 10.8638 0.26349 10.864C-0.0873042 11.214 -0.0884272 11.7847 0.263401 12.136C0.263715 12.1362 0.26394 12.1366 0.26421 12.1368L4.95872 16.8087C5.31037 17.1586 5.87926 17.1574 6.22934 16.8056C6.57937 16.454 6.57802 15.8851 6.22633 15.5351L3.07452 12.3984H22.1016C22.5977 12.3984 23 11.9962 23 11.5C23 11.0038 22.5977 10.6016 22.1016 10.6016Z" fill="white"/>
</g>
<defs>
<clipPath id="clip0">
<rect width="23" height="23" fill="white"/>
</clipPath>
</defs>
</svg>
