<svg width="29" height="31" viewBox="0 0 29 31" fill="none" xmlns="http://www.w3.org/2000/svg">
<path d="M24.0428 5.29905C23.9537 5.20428 23.8416 5.13781 23.7192 5.10702C23.5969 5.07624 23.4689 5.08235 23.3495 5.12467L5.22453 11.5814C5.09268 11.6304 4.97801 11.7214 4.89592 11.8421C4.81383 11.9628 4.76825 12.1075 4.76529 12.2567C4.76233 12.4059 4.80214 12.5525 4.87937 12.6768C4.9566 12.8011 5.06755 12.8972 5.19734 12.9522L13.6708 16.3864L16.8834 25.4442C16.9315 25.5875 17.0202 25.7112 17.1372 25.798C17.2542 25.8848 17.3935 25.9305 17.5359 25.9286C17.6748 25.9269 17.8097 25.8794 17.9225 25.7928C18.0352 25.7061 18.1201 25.5844 18.1658 25.4442L24.2059 6.06921C24.2511 5.93769 24.2597 5.79501 24.2308 5.65837C24.2019 5.52173 24.1366 5.39694 24.0428 5.29905ZM17.4816 23.0223L14.9894 15.9844L17.1281 13.6981C17.2482 13.5604 17.3135 13.3782 17.3104 13.19C17.3073 13.0018 17.236 12.8222 17.1115 12.689C16.9869 12.5559 16.8189 12.4797 16.6428 12.4763C16.4668 12.473 16.2963 12.5429 16.1675 12.6712L14.0469 14.9769L7.48109 12.3128L22.4886 6.96046L17.4816 23.0223Z" fill="#B7B7B7"/>
<path d="M9.16219 17.1856C9.28225 17.0479 9.34761 16.8657 9.3445 16.6775C9.3414 16.4893 9.27006 16.3097 9.14553 16.1766C9.021 16.0434 8.853 15.9672 8.67691 15.9639C8.50083 15.9605 8.33041 16.0304 8.20156 16.1587L6.17156 18.3287C6.04538 18.4656 5.97464 18.65 5.97464 18.8422C5.97464 19.0343 6.04538 19.2188 6.17156 19.3556C6.23436 19.4236 6.30915 19.4775 6.3916 19.5143C6.47405 19.5512 6.56252 19.5701 6.65188 19.5701C6.74123 19.5701 6.8297 19.5512 6.91215 19.5143C6.9946 19.4775 7.06939 19.4236 7.13219 19.3556L9.16219 17.1856Z" fill="#B7B7B7"/>
<path d="M10.8206 19.4331C10.7578 19.3652 10.683 19.3112 10.6006 19.2744C10.5181 19.2376 10.4297 19.2186 10.3403 19.2186C10.2509 19.2186 10.1625 19.2376 10.08 19.2744C9.99758 19.3112 9.92279 19.3652 9.85999 19.4331L7.28624 22.1844C7.16618 22.3221 7.10082 22.5043 7.10393 22.6925C7.10703 22.8807 7.17837 23.0603 7.3029 23.1934C7.42743 23.3266 7.59543 23.4028 7.77152 23.4061C7.9476 23.4094 8.11802 23.3396 8.24687 23.2112L10.8206 20.46C10.8842 20.3929 10.9347 20.3129 10.9691 20.2248C11.0035 20.1366 11.0213 20.0421 11.0213 19.9465C11.0213 19.851 11.0035 19.7565 10.9691 19.6683C10.9347 19.5802 10.8842 19.5002 10.8206 19.4331Z" fill="#B7B7B7"/>
<path d="M12.9231 21.2059L10.875 23.3759C10.7549 23.5137 10.6896 23.6958 10.6927 23.8841C10.6958 24.0723 10.7671 24.2519 10.8916 24.385C11.0162 24.5181 11.1842 24.5944 11.3603 24.5977C11.5363 24.601 11.7068 24.5311 11.8356 24.4028L13.8656 22.2328C13.9651 22.0939 14.0143 21.9213 14.0043 21.7467C13.9943 21.5721 13.9257 21.4072 13.8111 21.2823C13.6965 21.1575 13.5436 21.081 13.3804 21.0669C13.2173 21.0529 13.0549 21.1023 12.9231 21.2059V21.2059Z" fill="#B7B7B7"/>
</svg>
