<svg width="47" height="47" viewBox="0 0 47 47" fill="none" xmlns="http://www.w3.org/2000/svg">
<circle cx="23.5" cy="23.5" r="23.5" fill="#0BCAD4"/>
<g clip-path="url(#clip0)">
<path d="M34.0016 28.8176H17.3676C17.1646 28.8176 17 28.653 17 28.4499C17 28.2469 17.1646 28.0823 17.3676 28.0823H34.0016C34.2047 28.0823 34.3693 28.2469 34.3693 28.4499C34.3693 28.653 34.2047 28.8176 34.0016 28.8176Z" fill="#FFD15B"/>
<path d="M20.8864 26.9825L19.2 25.296L17.1225 27.3735C16.8609 27.6351 17.0461 28.0823 17.416 28.0823H19.4283C19.6577 28.0823 19.8777 27.9911 20.0399 27.8289L20.8864 26.9825Z" fill="url(#paint0_linear)"/>
<path d="M20.6515 27.3729L18.8095 25.5309C18.4843 25.2056 18.4843 24.6783 18.8095 24.3531L20.286 22.8766L23.3058 25.8964L21.8293 27.3729C21.5041 27.6981 20.9768 27.6981 20.6515 27.3729Z" fill="url(#paint1_linear)"/>
<path d="M23.3059 25.8966L22.624 26.579L21.8294 27.3731C21.8049 27.3976 21.7789 27.4206 21.752 27.4407L18.7417 24.4304C18.7618 24.4035 18.7848 24.3775 18.8093 24.353L19.6039 23.5589L20.2858 22.8765L23.3059 25.8966Z" fill="url(#paint2_linear)"/>
<path d="M28.1151 24.2508L21.9316 18.0672L20.2114 19.7874C19.9986 20.0002 19.8942 20.2802 19.898 20.5591C19.9037 20.9714 19.7144 21.367 19.3715 21.5963C19.2991 21.6447 19.2286 21.701 19.1633 21.7663C18.7453 22.1842 18.7453 22.8618 19.1633 23.2797L22.9026 27.0191C23.3206 27.4371 23.9982 27.4371 24.4161 27.0191C24.4814 26.9538 24.5377 26.8833 24.5861 26.8109C24.8153 26.468 25.211 26.2787 25.6233 26.2844C25.9022 26.2882 26.1822 26.1838 26.3949 25.971C26.0907 26.2752 27.5121 24.8538 28.1151 24.2508V24.2508Z" fill="url(#paint3_linear)"/>
<path d="M21.9316 18.0672L21.9315 18.0673L21.9313 18.0672L20.3318 19.6672L20.2112 19.7873C20.0024 19.9961 19.898 20.2701 19.898 20.5437V20.5589C19.8999 20.6824 19.8838 20.8045 19.8514 20.9206L24.4347 25.5039C24.5632 25.6324 24.5631 25.841 24.4346 25.9696C24.4341 25.9701 24.4336 25.9705 24.4331 25.971C24.2204 26.1838 23.9403 26.2882 23.6615 26.2844C23.266 26.2789 22.8863 26.4533 22.6536 26.7701L22.8897 27.0061C23.3068 27.4233 24.0014 27.4354 24.4178 27.0174C24.4824 26.9526 24.5381 26.8827 24.5862 26.8108C24.8156 26.4677 25.2109 26.2788 25.6236 26.2844C25.9023 26.2881 26.1822 26.1837 26.3949 25.971C26.6126 25.7533 27.6293 24.7367 28.1151 24.2508L21.9316 18.0672Z" fill="url(#paint4_linear)"/>
<path d="M25.741 25.2034L20.979 20.4414C20.3413 19.8037 20.3413 18.7698 20.979 18.1322L33.5629 5.54823C34.9866 4.12455 37.2949 4.12455 38.7186 5.54823L40.6342 7.46386C42.0579 8.88754 42.0579 11.1958 40.6342 12.6195L28.0502 25.2034C27.4125 25.8411 26.3787 25.8411 25.741 25.2034Z" fill="url(#paint5_linear)"/>
<path d="M40.6342 7.46394L38.7185 5.5483C37.7929 4.62271 36.4938 4.30011 35.3066 4.5781C35.2582 4.58879 35.2095 4.6005 35.1596 4.61438C34.5748 4.77717 34.0226 5.08845 33.5627 5.5482L31.7117 7.39918L30.3921 8.71928L31.1754 9.50261C31.7527 10.0799 31.7527 11.0158 31.1754 11.5931L27.5489 15.2197C27.255 15.5135 27.255 15.99 27.5489 16.2838L28.6726 17.4076C28.9665 17.7015 29.4429 17.7015 29.7368 17.4076L34.4085 12.7358L35.0668 13.3941C35.8486 14.1759 35.8486 15.4433 35.0668 16.2251L26.0885 25.2035C26.0334 25.2585 25.9752 25.3085 25.9148 25.3541C26.5545 25.8361 27.4676 25.7861 28.0502 25.2035L40.6342 12.6196C42.0578 11.1958 42.0578 8.88761 40.6342 7.46394V7.46394Z" fill="url(#paint6_linear)"/>
<path d="M39.2956 14.439L40.8596 12.875C42.3802 11.3545 42.3802 8.88926 40.8596 7.36872L38.8137 5.32279C37.2931 3.80225 34.8279 3.80225 33.3074 5.32279L31.7434 6.88676C31.3479 7.28225 31.3479 7.92348 31.7434 8.31897L37.8634 14.439C38.2589 14.8345 38.9002 14.8345 39.2956 14.439V14.439Z" fill="url(#paint7_linear)"/>
<path d="M35.433 8.39965C35.1391 8.10578 34.6627 8.10578 34.3688 8.39965L33.0964 9.67205L35.2844 11.86L36.5568 10.5876C36.8506 10.2937 36.8506 9.81725 36.5568 9.52342L35.433 8.39965Z" fill="url(#paint8_linear)"/>
<path d="M40.8596 7.36878L38.8137 5.32285C37.8017 4.31089 36.3715 3.97334 35.0797 4.30839C35.7289 4.47677 36.3434 4.81427 36.8519 5.32285L38.8978 7.36878C40.4184 8.88932 40.4184 11.3546 38.8978 12.8751L37.5986 14.1743L37.8634 14.4391C38.2589 14.8346 38.9001 14.8346 39.2956 14.4391L40.8596 12.8751C42.3801 11.3546 42.3801 8.88932 40.8596 7.36878V7.36878Z" fill="url(#paint9_linear)"/>
<path d="M29.8987 17.4074L28.775 16.2837C28.4811 15.9898 28.4811 15.5134 28.775 15.2196L35.5949 8.39965C35.8887 8.10578 36.3652 8.10578 36.659 8.39965L37.7827 9.52338C38.0766 9.81725 38.0766 10.2937 37.7827 10.5875L30.9629 17.4074C30.669 17.7013 30.1926 17.7013 29.8987 17.4074Z" fill="url(#paint10_linear)"/>
<path d="M26.3725 25.9946C26.3454 26.0202 26.3476 26.0181 26.3725 25.9946V25.9946Z" fill="url(#paint11_linear)"/>
<path d="M26.3765 25.9908C26.3787 25.9881 26.3814 25.9858 26.3841 25.9825C26.3847 25.9825 26.3852 25.982 26.3858 25.9814L26.3765 25.9908Z" fill="url(#paint12_linear)"/>
</g>
<ellipse cx="18" cy="30.5" rx="8" ry="1.5" fill="#459DD2"/>
<defs>
<linearGradient id="paint0_linear" x1="18.0703" y1="26.5242" x2="20.0564" y2="28.5103" gradientUnits="userSpaceOnUse">
<stop stop-color="#FFE177"/>
<stop offset="0.5725" stop-color="#FEB137"/>
<stop offset="1" stop-color="#FE646F"/>
</linearGradient>
<linearGradient id="paint1_linear" x1="17.7843" y1="25.2467" x2="23.1436" y2="25.2467" gradientUnits="userSpaceOnUse">
<stop stop-color="#537983"/>
<stop offset="1" stop-color="#3E5959"/>
</linearGradient>
<linearGradient id="paint2_linear" x1="16.2402" y1="25.1586" x2="22.7031" y2="25.1586" gradientUnits="userSpaceOnUse">
<stop stop-color="#537983"/>
<stop offset="1" stop-color="#384949"/>
</linearGradient>
<linearGradient id="paint3_linear" x1="18.0784" y1="22.6999" x2="27.984" y2="22.6999" gradientUnits="userSpaceOnUse">
<stop stop-color="#537983"/>
<stop offset="1" stop-color="#3E5959"/>
</linearGradient>
<linearGradient id="paint4_linear" x1="16.7876" y1="22.6961" x2="26.9148" y2="22.6961" gradientUnits="userSpaceOnUse">
<stop stop-color="#537983"/>
<stop offset="1" stop-color="#384949"/>
</linearGradient>
<linearGradient id="paint5_linear" x1="19.8431" y1="15.0811" x2="40.7883" y2="15.0811" gradientUnits="userSpaceOnUse">
<stop stop-color="#FFE177"/>
<stop offset="0.5725" stop-color="#FEB137"/>
<stop offset="1" stop-color="#FE646F"/>
</linearGradient>
<linearGradient id="paint6_linear" x1="16.1667" y1="15.0816" x2="38.5796" y2="15.0816" gradientUnits="userSpaceOnUse">
<stop stop-color="#FFE177"/>
<stop offset="0.5725" stop-color="#FEB137"/>
<stop offset="1" stop-color="#FE646F"/>
</linearGradient>
<linearGradient id="paint7_linear" x1="29.1078" y1="9.45902" x2="42.874" y2="9.45902" gradientUnits="userSpaceOnUse">
<stop stop-color="#537983"/>
<stop offset="1" stop-color="#3E5959"/>
</linearGradient>
<linearGradient id="paint8_linear" x1="31.6078" y1="10.0196" x2="36.523" y2="10.0196" gradientUnits="userSpaceOnUse">
<stop stop-color="#537983"/>
<stop offset="1" stop-color="#384949"/>
</linearGradient>
<linearGradient id="paint9_linear" x1="30.8726" y1="9.45947" x2="41.9381" y2="9.45947" gradientUnits="userSpaceOnUse">
<stop stop-color="#537983"/>
<stop offset="1" stop-color="#384949"/>
</linearGradient>
<linearGradient id="paint10_linear" x1="27.7843" y1="12.9035" x2="37.902" y2="12.9035" gradientUnits="userSpaceOnUse">
<stop stop-color="#537983"/>
<stop offset="1" stop-color="#3E5959"/>
</linearGradient>
<linearGradient id="paint11_linear" x1="26.3514" y1="26.0038" x2="26.3722" y2="26.0038" gradientUnits="userSpaceOnUse">
<stop stop-color="#CDBFBA"/>
<stop offset="1" stop-color="#766E6E"/>
</linearGradient>
<linearGradient id="paint12_linear" x1="26.3757" y1="25.9861" x2="26.3857" y2="25.9861" gradientUnits="userSpaceOnUse">
<stop stop-color="#CDBFBA"/>
<stop offset="1" stop-color="#766E6E"/>
</linearGradient>
<clipPath id="clip0">
<rect width="25" height="25" fill="white" transform="translate(17 4)"/>
</clipPath>
</defs>
</svg>
