<svg width="47" height="47" viewBox="0 0 47 47" fill="none" xmlns="http://www.w3.org/2000/svg">
<circle cx="23.5" cy="23.5" r="23.5" fill="#0BCAD4"/>
<path d="M23.0766 25.6237L19.2102 30.2634C18.4476 31.1785 18.4476 32.6623 19.2102 33.5774C19.9729 34.4926 21.2093 34.4926 21.972 33.5774L25.8384 28.9378C26.601 28.0226 26.601 26.5388 25.8384 25.6237C25.0757 24.7085 23.8393 24.7085 23.0766 25.6237Z" fill="#AFEAEF"/>
<path d="M25.8811 27.0635L22.0139 31.7041C21.6476 32.1437 21.1508 32.3906 20.6328 32.3906C20.1148 32.3906 19.618 32.1437 19.2518 31.7041C19.0672 31.4833 18.9215 31.2203 18.8233 30.9307C18.6539 31.3667 18.6004 31.8548 18.67 32.3285C18.7396 32.8023 18.929 33.2389 19.2125 33.5791C19.5788 34.0187 20.0756 34.2656 20.5936 34.2656C21.1115 34.2656 21.6083 34.0187 21.9746 33.5791L25.8418 28.9385C26.1135 28.6125 26.2991 28.1976 26.3753 27.7456C26.4515 27.2937 26.415 26.8248 26.2703 26.3977C26.1739 26.6452 26.0422 26.8705 25.8811 27.0635V27.0635Z" fill="#4ABDCC"/>
<path d="M20.5938 32.9062H15.125C14.0463 32.9062 13.1719 33.9556 13.1719 35.25C13.1719 36.5444 14.0463 37.5938 15.125 37.5938H20.5938C21.6724 37.5938 22.5469 36.5444 22.5469 35.25C22.5469 33.9556 21.6724 32.9062 20.5938 32.9062Z" fill="#E5E5E5"/>
<path d="M20.9844 36.1875H15.5156C14.9976 36.1875 14.5008 35.9406 14.1346 35.501C13.7683 35.0615 13.5625 34.4654 13.5625 33.8438C13.3084 34.2491 13.1713 34.7428 13.1719 35.25C13.1719 35.8716 13.3777 36.4677 13.7439 36.9073C14.1102 37.3468 14.607 37.5938 15.125 37.5938H20.5938C21.1118 37.5938 21.6085 37.3468 21.9748 36.9073C22.3411 36.4677 22.5469 35.8716 22.5469 35.25C22.3651 35.5413 22.1292 35.7777 21.858 35.9404C21.5868 36.1032 21.2876 36.1878 20.9844 36.1875V36.1875Z" fill="#B7B7B7"/>
<path d="M15.125 32.9062C14.607 32.9062 14.1102 33.1532 13.7439 33.5927C13.3777 34.0323 13.1719 34.6284 13.1719 35.25C13.1719 35.8716 13.3777 36.4677 13.7439 36.9073C14.1102 37.3468 14.607 37.5938 15.125 37.5938H17.8594V32.9062H15.125Z" fill="#F44A2A"/>
<path d="M15.125 32.9062C14.607 32.9062 14.1102 33.1532 13.7439 33.5927C13.3777 34.0323 13.1719 34.6284 13.1719 35.25C13.1719 35.8716 13.3777 36.4677 13.7439 36.9073C14.1102 37.3468 14.607 37.5938 15.125 37.5938H17.8594V32.9062H15.125Z" fill="#F44A2A"/>
<path d="M15.5156 36.1875C14.9976 36.1875 14.5008 35.9406 14.1346 35.501C13.7683 35.0615 13.5625 34.4654 13.5625 33.8438C13.3449 34.192 13.2123 34.606 13.1798 35.0395C13.1472 35.473 13.2159 35.9088 13.3781 36.2982C13.5403 36.6875 13.7896 37.0149 14.0982 37.2437C14.4067 37.4725 14.7623 37.5938 15.125 37.5938H17.8594V36.1875H15.5156Z" fill="#CE3521"/>
<path d="M19.0312 22.5938C17.772 22.0442 16.6842 21.043 15.9154 19.726C15.1467 18.409 14.7344 16.8401 14.7344 15.2321V12.2812L19.0312 10.4062L23.3281 12.2812V15.2321C23.3281 16.8401 22.9158 18.409 22.1471 19.726C21.3783 21.043 20.2905 22.0442 19.0312 22.5938V22.5938Z" fill="#77D5D8"/>
<path d="M19.0312 10.4062V22.5938C20.2905 22.0443 21.3783 21.0431 22.1471 19.7261C22.9158 18.4091 23.3281 16.8401 23.3281 15.2322V12.2812L19.0312 10.4062Z" fill="#3B9DAF"/>
<path d="M21.7656 15.5625H20.2031V13.6875H18.6406V15.5625H17.0781V17.4375H18.6406V19.3125H20.2031V17.4375H21.7656V15.5625Z" fill="#4ABDCC"/>
<path d="M21.375 15.0938H19.8125V13.2188H18.25V15.0938H16.6875V16.9688H18.25V18.8438H19.8125V16.9688H21.375V15.0938Z" fill="#F44A2A"/>
<path d="M28.7969 18.375H33.4844V22.5938H28.7969V18.375Z" fill="#F7B023"/>
<path d="M28.7969 18.375V19.7812H31.5312V22.5938H33.4844V18.375H28.7969Z" fill="#F99321"/>
<path d="M34.3065 21.6562H27.9748C27.1344 21.6562 26.4531 22.4738 26.4531 23.4822V34.8303C26.4531 35.8387 27.1344 36.6562 27.9748 36.6562H34.3065C35.1469 36.6562 35.8281 35.8387 35.8281 34.8303V23.4822C35.8281 22.4738 35.1469 21.6562 34.3065 21.6562Z" fill="#F7CE23"/>
<path d="M34.3065 21.6562H33.0938V31.0803C33.0938 31.3201 33.0544 31.5575 32.9779 31.7791C32.9015 32.0006 32.7894 32.2019 32.6481 32.3714C32.5068 32.541 32.339 32.6755 32.1544 32.7673C31.9698 32.859 31.7719 32.9062 31.5721 32.9062H26.4531V34.8303C26.4531 35.3146 26.6134 35.779 26.8988 36.1214C27.1842 36.4639 27.5712 36.6562 27.9748 36.6562H34.3065C34.7101 36.6562 35.0971 36.4639 35.3824 36.1214C35.6678 35.779 35.8281 35.3146 35.8281 34.8303V23.4822C35.8281 23.2424 35.7888 23.005 35.7123 22.7834C35.6358 22.5619 35.5237 22.3606 35.3824 22.1911C35.2412 22.0215 35.0734 21.887 34.8888 21.7952C34.7042 21.7035 34.5063 21.6562 34.3065 21.6562V21.6562Z" fill="#F7B023"/>
<path d="M26.4531 24.9375H35.8281V31.5H26.4531V24.9375Z" fill="#066991"/>
<path d="M28.0156 16.0312H34.2656V18.8438H28.0156V16.0312Z" fill="#F9E48C"/>
<path d="M29.1875 16.0312H29.9688V18.8438H29.1875V16.0312Z" fill="#F7CE23"/>
<path d="M30.75 16.0312H31.5312V18.8438H30.75V16.0312Z" fill="#F7CE23"/>
<path d="M32.3125 17.4375H33.0938V18.8438H32.3125V17.4375Z" fill="#F7CE23"/>
<path d="M25.8418 25.624C25.4755 25.1845 24.9787 24.9375 24.4607 24.9375C23.9427 24.9375 23.446 25.1845 23.0797 25.624L21.1461 27.9443L23.9082 31.2588L25.8418 28.9385C26.2081 28.499 26.4138 27.9028 26.4138 27.2812C26.4138 26.6597 26.2081 26.0635 25.8418 25.624V25.624Z" fill="#1DBF5E"/>
<path d="M25.8418 25.624C25.7249 25.4836 25.5937 25.3615 25.4512 25.2607C25.643 25.703 25.7124 26.2071 25.6491 26.6999C25.5859 27.1927 25.3934 27.6485 25.0996 28.0011L23.1465 30.3448L23.9082 31.2589L25.8418 28.9386C26.0232 28.7209 26.167 28.4626 26.2652 28.1782C26.3633 27.8938 26.4139 27.5891 26.4139 27.2813C26.4139 26.9735 26.3633 26.6687 26.2652 26.3844C26.167 26.1 26.0232 25.8416 25.8418 25.624Z" fill="#16994A"/>
<path d="M26.4531 34.8303C26.4531 35.3146 26.6134 35.779 26.8988 36.1214C27.1842 36.4639 27.5712 36.6562 27.9748 36.6562H34.3065C34.7101 36.6562 35.0971 36.4639 35.3824 36.1214C35.6678 35.779 35.8281 35.3146 35.8281 34.8303V34.7812H26.4531V34.8303Z" fill="#F99321"/>
<path d="M26.4531 24.9375H33.0938V31.5H26.4531V24.9375Z" fill="#77D5D8"/>
<path d="M33.0938 28.2188H31.9219V26.8125H31.1406V28.2188H29.9688V29.1562H31.1406V30.5625H31.9219V29.1562H33.0938V28.2188Z" fill="#4ABDCC"/>
<path d="M32.7031 27.75H31.5312V26.3438H30.75V27.75H29.5781V28.6875H30.75V30.0938H31.5312V28.6875H32.7031V27.75Z" fill="white"/>
<path d="M20.5938 35.25H19.0312C18.8155 35.25 18.6406 35.4599 18.6406 35.7188C18.6406 35.9776 18.8155 36.1875 19.0312 36.1875H20.5938C20.8095 36.1875 20.9844 35.9776 20.9844 35.7188C20.9844 35.4599 20.8095 35.25 20.5938 35.25Z" fill="white"/>
<path d="M16.2969 35.25H15.5156C15.2999 35.25 15.125 35.4599 15.125 35.7188C15.125 35.9776 15.2999 36.1875 15.5156 36.1875H16.2969C16.5126 36.1875 16.6875 35.9776 16.6875 35.7188C16.6875 35.4599 16.5126 35.25 16.2969 35.25Z" fill="white"/>
<path d="M24.3866 26.9661L23.8343 27.629C23.6818 27.812 23.6818 28.1087 23.8343 28.2918C23.9868 28.4748 24.2341 28.4748 24.3866 28.2918L24.939 27.629C25.0915 27.4459 25.0915 27.1492 24.939 26.9661C24.7865 26.7831 24.5392 26.7831 24.3866 26.9661Z" fill="white"/>
<path d="M14.7344 35.7188C14.9501 35.7188 15.125 35.5089 15.125 35.25C15.125 34.9911 14.9501 34.7812 14.7344 34.7812C14.5186 34.7812 14.3438 34.9911 14.3438 35.25C14.3438 35.5089 14.5186 35.7188 14.7344 35.7188Z" fill="white"/>
<path d="M25.1709 26.686C25.3866 26.686 25.5615 26.4761 25.5615 26.2172C25.5615 25.9584 25.3866 25.7485 25.1709 25.7485C24.9552 25.7485 24.7803 25.9584 24.7803 26.2172C24.7803 26.4761 24.9552 26.686 25.1709 26.686Z" fill="white"/>
</svg>
