<svg width="47" height="47" viewBox="0 0 47 47" fill="none" xmlns="http://www.w3.org/2000/svg">
<circle cx="23.5" cy="23.5" r="23.5" fill="#0BCAD4"/>
<path d="M38 21.4667C38 31.6667 23.5 39.6 23.5 39.6C23.5 39.6 15.3438 35.1375 11.2656 28.6031C9.90625 26.425 9 24.0167 9 21.4667C9 18.3776 10.3177 15.6498 12.3302 14.0122C16.0441 10.9908 21.2555 12.3303 23.5 17.075C26.5647 10.5966 34.6097 10.9318 37.2774 17.6353C37.3038 17.6663 38 19.3383 38 21.4667V21.4667Z" fill="#FC465C"/>
<path d="M37.3958 19.1525C37.3958 23.8275 34.0729 27.9832 30.75 30.97C26.8329 34.491 21.4054 34.5105 17.4853 30.9941C14.2507 28.0926 10.8125 23.9065 10.8125 19.1525C10.8125 17.2117 11.3798 15.4267 12.3302 14.0122C16.0441 10.9908 21.2555 12.3303 23.5 17.075C26.5593 10.608 34.6054 10.9208 37.2774 17.6353C37.2832 17.642 37.3958 18.3304 37.3958 19.1525V19.1525Z" fill="#FC465C"/>
<path d="M34.7469 19.3403C34.5461 18.7603 33.9821 18.4811 33.4876 18.7166C32.993 18.952 32.7547 19.6131 32.9556 20.193C34.0849 23.4544 30.2895 27.6143 27.9053 29.7746C27.1775 30.434 27.5779 31.8047 28.4971 31.8047C28.7035 31.8047 28.9116 31.7275 29.0875 31.568C32.3866 28.5787 36.3092 23.8513 34.7469 19.3403V19.3403Z" fill="#FFA4B8"/>
<path d="M30.9916 18.1741C31.3656 18.2873 31.4317 18.3977 31.7163 18.3977C32.0982 18.3977 32.4599 18.1307 32.6123 17.6903C32.8131 17.1103 32.5749 16.4493 32.0803 16.2139C31.8838 16.1204 31.6802 16.0415 31.4751 15.9794C30.9582 15.8228 30.4309 16.1873 30.2974 16.7934C30.1639 17.3994 30.4747 18.0176 30.9916 18.1741Z" fill="#FFA4B8"/>
</svg>
