<svg width="43" height="43" viewBox="0 0 43 43" fill="none" xmlns="http://www.w3.org/2000/svg">
<g clip-path="url(#clip0)">
<path d="M13.1043 28.063C13.9425 28.063 14.622 27.3834 14.622 26.5452C14.622 25.707 13.9425 25.0275 13.1043 25.0275C12.266 25.0275 11.5865 25.707 11.5865 26.5452C11.5865 27.3834 12.266 28.063 13.1043 28.063Z" fill="#0BCAD4"/>
<path d="M29.8957 28.063C30.734 28.063 31.4135 27.3834 31.4135 26.5452C31.4135 25.707 30.734 25.0275 29.8957 25.0275C29.0575 25.0275 28.378 25.707 28.378 26.5452C28.378 27.3834 29.0575 28.063 29.8957 28.063Z" fill="#0BCAD4"/>
<path d="M13.1043 21.6779C12.2753 21.6779 11.4958 22.0007 10.9096 22.587C10.5928 22.9036 10.5928 23.417 10.9096 23.7338C11.2263 24.0505 11.7397 24.0504 12.0562 23.7338C12.3362 23.4538 12.7084 23.2996 13.1043 23.2996C13.5002 23.2996 13.8724 23.4538 14.1523 23.7338C14.3106 23.8921 14.5181 23.9713 14.7257 23.9712C14.9332 23.9712 15.1408 23.8921 15.2991 23.7338C15.6158 23.4171 15.6158 22.9037 15.2991 22.587C14.7127 22.0008 13.9333 21.6779 13.1043 21.6779Z" fill="#0BCAD4"/>
<path d="M27.7009 22.587C27.3842 22.9036 27.3842 23.417 27.7009 23.7338C28.0176 24.0505 28.531 24.0504 28.8476 23.7338C29.4254 23.1558 30.3658 23.1559 30.9437 23.7338C31.102 23.8921 31.3095 23.9712 31.5171 23.9712C31.7246 23.9712 31.9321 23.8921 32.0904 23.7338C32.4072 23.4171 32.4072 22.9037 32.0904 22.587C30.8804 21.377 28.9113 21.3769 27.7009 22.587Z" fill="#0BCAD4"/>
<path d="M23.0617 32.9895C22.6445 33.4066 22.09 33.6364 21.5 33.6364C20.91 33.6364 20.3554 33.4067 19.9383 32.9895C19.6217 32.6729 19.1083 32.6729 18.7917 32.9895C18.4749 33.3061 18.4749 33.8195 18.7917 34.1363C19.5151 34.8598 20.4769 35.2581 21.5001 35.2581C22.5232 35.2581 23.485 34.8597 24.2084 34.1363C24.5252 33.8196 24.5252 33.3062 24.2084 32.9895C23.8917 32.6729 23.3783 32.6729 23.0617 32.9895Z" fill="#0BCAD4"/>
<path d="M40.6325 25.763C40.6325 23.5603 39.0402 21.7237 36.9465 21.3407V7.77567C36.9465 6.01589 36.0711 4.38443 34.6047 3.4115C33.2275 2.49775 31.5176 2.29038 29.9716 2.83517L24.8807 1.10722C20.9689 -0.220667 16.8513 -0.356892 12.973 0.713144C7.89579 2.11401 4.98499 5.0763 4.53567 9.28712C4.13804 9.81154 3.82211 10.4005 3.60743 11.036L3.21254 12.2048C3.0006 12.8323 3.23423 13.4917 3.79413 13.8457C4.35383 14.1996 5.04986 14.1281 5.52594 13.6674C5.68852 13.51 5.8663 13.3774 6.0534 13.2665V21.3408C3.95975 21.7238 2.36742 23.5603 2.36742 25.7631C2.36742 28.0538 4.08959 29.9487 6.307 30.2242C6.86386 33.299 8.32717 36.1353 10.5646 38.405C13.4859 41.3683 17.3693 43.0002 21.5 43.0002C21.5005 43.0002 21.501 43.0002 21.5015 43.0002C25.6268 42.9998 29.5052 41.3931 32.4223 38.4761C34.7009 36.1975 36.1799 33.3323 36.7184 30.221C38.9235 29.9339 40.6325 28.0448 40.6325 25.763ZM33.7081 4.7629C34.7356 5.44453 35.3248 6.54265 35.3248 7.77567V18.3867C32.808 17.9956 30.8755 15.814 30.8755 13.1892L30.8084 4.27375C31.7985 4.01275 32.8311 4.18101 33.7081 4.7629ZM4.98631 12.0214L5.14392 11.5551C5.55675 10.3332 6.47353 9.34124 7.65912 8.83364C8.8446 8.32604 10.1952 8.34712 11.3644 8.89172C13.8199 10.0353 16.7883 9.41706 18.583 7.38828L18.7839 7.16113C19.0806 6.82574 19.0492 6.31327 18.7138 6.0166C18.3782 5.71992 17.8659 5.75124 17.5692 6.08664L17.3683 6.31378C16.0458 7.80881 13.8584 8.26431 12.049 7.42162C10.4625 6.68262 8.62962 6.65394 7.02076 7.34287C6.8743 7.40561 6.73189 7.47565 6.59172 7.54893C7.53424 5.03616 9.8154 3.26666 13.4045 2.27639C16.9683 1.29301 20.7565 1.41981 24.3597 2.6428L29.1866 4.28125L29.2499 8.47108C27.1006 11.3933 23.966 13.3715 20.3939 14.0518C16.7363 14.7482 13.0048 14.0112 9.88686 11.9765C8.36325 10.9825 6.44252 11.025 4.98631 12.0214ZM3.98915 25.763C3.98915 24.4592 4.86174 23.356 6.0534 23.005V27.4001C6.0534 27.7798 6.06709 28.1573 6.09374 28.5325C4.8816 28.1946 3.98915 27.0814 3.98915 25.763ZM31.2756 37.3291C28.6648 39.9399 25.1936 41.3779 21.5014 41.3783C21.5008 41.3783 21.5007 41.3783 21.5 41.3783C17.8072 41.3783 14.3334 39.9178 11.7195 37.2664C9.11147 34.6207 7.67513 31.1168 7.67513 27.4V12.8842C8.13438 12.9185 8.59009 13.0671 9.00039 13.3347C12.4715 15.5998 16.6253 16.4203 20.6971 15.6449C24.0023 15.0155 26.9715 13.3884 29.2536 10.9887V13.1891C29.2536 16.7094 31.9109 19.6189 35.3247 20.0216V27.5533C35.3248 31.2462 33.8868 34.718 31.2756 37.3291ZM36.9152 28.5298C36.9352 28.2061 36.9465 27.8806 36.9465 27.5534V23.005C38.1382 23.356 39.0108 24.4592 39.0108 25.763C39.0108 27.0781 38.1229 28.1891 36.9152 28.5298Z" fill="#0BCAD4"/>
</g>
<defs>
<clipPath id="clip0">
<rect width="43" height="43" fill="white"/>
</clipPath>
</defs>
</svg>
