<svg width="43" height="43" viewBox="0 0 43 43" fill="none" xmlns="http://www.w3.org/2000/svg">
<path d="M25.0834 32.25H17.9167C17.5212 32.25 17.2001 32.5703 17.2001 32.9666V37.9833C17.2001 38.3796 17.5212 38.6999 17.9167 38.6999H25.0834C25.4797 38.6999 25.8 38.3796 25.8 37.9833V32.9666C25.8 32.5703 25.4797 32.25 25.0834 32.25ZM24.3666 37.2666H18.6333V33.6833H24.3666V37.2666Z" fill="#C4C4C4"/>
<path d="M22.2167 32.9666H20.7834V37.9833H22.2167V32.9666Z" fill="#C4C4C4"/>
<path d="M28.6666 4.29999H14.3334C13.9378 4.29999 13.6167 4.62106 13.6167 5.01663V37.9833C13.6167 38.3796 13.9378 38.6999 14.3334 38.6999H28.6667C29.0631 38.6999 29.3834 38.3796 29.3834 37.9833V5.01663C29.3834 4.62106 29.063 4.29999 28.6666 4.29999ZM27.95 37.2666H15.05V5.73335H27.95V37.2666Z" fill="#C4C4C4"/>
<path d="M14.3334 7.16663H8.6C8.20443 7.16663 7.88336 7.4877 7.88336 7.88326V37.9833C7.88336 38.3796 8.20443 38.6999 8.6 38.6999H14.3334C14.7289 38.6999 15.05 38.3796 15.05 37.9833V7.88326C15.05 7.4877 14.7289 7.16663 14.3334 7.16663ZM13.6166 37.2666H9.31664V8.59999H13.6166V37.2666Z" fill="#C4C4C4"/>
<path d="M8.6 7.16663H6.45V8.59999H8.6V7.16663Z" fill="#C4C4C4"/>
<path d="M30.8167 4.29999H12.1834V5.73335H30.8167V4.29999Z" fill="#C4C4C4"/>
<path d="M17.9167 28.6666H16.4834V30.8166H17.9167V28.6666Z" fill="#C4C4C4"/>
<path d="M20.7834 28.6666H19.35V30.8166H20.7834V28.6666Z" fill="#C4C4C4"/>
<path d="M23.65 28.6666H22.2166V30.8166H23.65V28.6666Z" fill="#C4C4C4"/>
<path d="M26.5167 28.6666H25.0834V30.8166H26.5167V28.6666Z" fill="#C4C4C4"/>
<path d="M17.9167 25.0834H16.4834V27.2334H17.9167V25.0834Z" fill="#C4C4C4"/>
<path d="M20.7834 25.0834H19.35V27.2334H20.7834V25.0834Z" fill="#C4C4C4"/>
<path d="M23.65 25.0834H22.2166V27.2334H23.65V25.0834Z" fill="#C4C4C4"/>
<path d="M26.5167 25.0834H25.0834V27.2334H26.5167V25.0834Z" fill="#C4C4C4"/>
<path d="M17.9167 21.5H16.4834V23.65H17.9167V21.5Z" fill="#C4C4C4"/>
<path d="M20.7834 21.5H19.35V23.65H20.7834V21.5Z" fill="#C4C4C4"/>
<path d="M23.65 21.5H22.2166V23.65H23.65V21.5Z" fill="#C4C4C4"/>
<path d="M26.5167 21.5H25.0834V23.65H26.5167V21.5Z" fill="#C4C4C4"/>
<path d="M17.9167 17.9166H16.4834V20.0666H17.9167V17.9166Z" fill="#C4C4C4"/>
<path d="M20.7834 17.9166H19.35V20.0666H20.7834V17.9166Z" fill="#C4C4C4"/>
<path d="M23.65 17.9166H22.2166V20.0666H23.65V17.9166Z" fill="#C4C4C4"/>
<path d="M26.5167 17.9166H25.0834V20.0666H26.5167V17.9166Z" fill="#C4C4C4"/>
<path d="M17.9167 14.3334H16.4834V16.4834H17.9167V14.3334Z" fill="#C4C4C4"/>
<path d="M20.7834 14.3334H19.35V16.4834H20.7834V14.3334Z" fill="#C4C4C4"/>
<path d="M23.65 14.3334H22.2166V16.4834H23.65V14.3334Z" fill="#C4C4C4"/>
<path d="M26.5167 14.3334H25.0834V16.4834H26.5167V14.3334Z" fill="#C4C4C4"/>
<path d="M17.9167 10.75H16.4834V12.9H17.9167V10.75Z" fill="#C4C4C4"/>
<path d="M20.7834 10.75H19.35V12.9H20.7834V10.75Z" fill="#C4C4C4"/>
<path d="M23.65 10.75H22.2166V12.9H23.65V10.75Z" fill="#C4C4C4"/>
<path d="M26.5167 10.75H25.0834V12.9H26.5167V10.75Z" fill="#C4C4C4"/>
<path d="M17.9167 7.16663H16.4834V9.31663H17.9167V7.16663Z" fill="#C4C4C4"/>
<path d="M20.7834 7.16663H19.35V9.31663H20.7834V7.16663Z" fill="#C4C4C4"/>
<path d="M23.65 7.16663H22.2166V9.31663H23.65V7.16663Z" fill="#C4C4C4"/>
<path d="M26.5167 7.16663H25.0834V9.31663H26.5167V7.16663Z" fill="#C4C4C4"/>
<path d="M12.1834 32.25H10.75V34.4H12.1834V32.25Z" fill="#C4C4C4"/>
<path d="M12.1834 28.6666H10.75V30.8166H12.1834V28.6666Z" fill="#C4C4C4"/>
<path d="M12.1834 25.0834H10.75V27.2334H12.1834V25.0834Z" fill="#C4C4C4"/>
<path d="M12.1834 21.5H10.75V23.65H12.1834V21.5Z" fill="#C4C4C4"/>
<path d="M12.1834 17.9166H10.75V20.0666H12.1834V17.9166Z" fill="#C4C4C4"/>
<path d="M12.1834 14.3334H10.75V16.4834H12.1834V14.3334Z" fill="#C4C4C4"/>
<path d="M12.1834 10.75H10.75V12.9H12.1834V10.75Z" fill="#C4C4C4"/>
<path d="M34.4 7.16663H28.6666C28.2703 7.16663 27.95 7.4877 27.95 7.88326V37.9833C27.95 38.3796 28.2703 38.6999 28.6666 38.6999H34.4C34.7963 38.6999 35.1166 38.3796 35.1166 37.9833V7.88326C35.1166 7.4877 34.7963 7.16663 34.4 7.16663ZM33.6834 37.2666H29.3834V8.59999H33.6834V37.2666Z" fill="#C4C4C4"/>
<path d="M36.55 7.16663H34.4V8.59999H36.55V7.16663Z" fill="#C4C4C4"/>
<path d="M32.25 32.25H30.8166V34.4H32.25V32.25Z" fill="#C4C4C4"/>
<path d="M32.25 28.6666H30.8166V30.8166H32.25V28.6666Z" fill="#C4C4C4"/>
<path d="M32.25 25.0834H30.8166V27.2334H32.25V25.0834Z" fill="#C4C4C4"/>
<path d="M32.25 21.5H30.8166V23.65H32.25V21.5Z" fill="#C4C4C4"/>
<path d="M32.25 17.9166H30.8166V20.0666H32.25V17.9166Z" fill="#C4C4C4"/>
<path d="M32.25 14.3334H30.8166V16.4834H32.25V14.3334Z" fill="#C4C4C4"/>
<path d="M32.25 10.75H30.8166V12.9H32.25V10.75Z" fill="#C4C4C4"/>
<path d="M8.6 37.2666H0V38.7H8.6V37.2666Z" fill="#C4C4C4"/>
<path d="M43 37.2666H34.4V38.7H43V37.2666Z" fill="#C4C4C4"/>
<path d="M4.3 22.9333H2.86664V37.9834H4.3V22.9333Z" fill="#C4C4C4"/>
<path d="M1.14668 23.7933L0.286667 24.94L6.01998 29.24L6.88 28.0933L1.14668 23.7933Z" fill="#C4C4C4"/>
<path d="M6.01814 23.7935L0.285278 28.0951L1.14558 29.2417L6.87844 24.9401L6.01814 23.7935Z" fill="#C4C4C4"/>
<path d="M40.1334 22.9333H38.7V37.9834H40.1334V22.9333Z" fill="#C4C4C4"/>
<path d="M36.9796 23.7939L36.12 24.94L41.8533 29.24L42.7129 28.0939L36.9796 23.7939Z" fill="#C4C4C4"/>
<path d="M41.8498 23.7975L36.1159 28.0959L36.9751 29.2421L42.709 24.9437L41.8498 23.7975Z" fill="#C4C4C4"/>
</svg>
