<svg width="35" height="35" viewBox="0 0 35 35" fill="none" xmlns="http://www.w3.org/2000/svg">
<g clip-path="url(#clip0)">
<path d="M32.1289 12.3047H22.5145C22.545 11.9674 22.5615 11.6259 22.5615 11.2806C22.5615 5.06046 17.5008 0 11.2806 0C9.29928 0 7.35023 0.52124 5.64419 1.50711C5.31734 1.6959 5.20546 2.11407 5.39425 2.44091C5.58331 2.76802 6.00147 2.87964 6.32832 2.69085C7.82661 1.82487 9.53907 1.36719 11.2806 1.36719C16.747 1.36719 21.1943 5.81429 21.1943 11.2806C21.1943 16.747 16.747 21.1943 11.2806 21.1943C8.99246 21.1943 6.84288 20.4362 5.0642 19.0023C4.88583 18.8586 4.64951 18.8157 4.43428 18.8816L2.61982 19.3561L3.33065 17.794C3.43292 17.5697 3.40622 17.308 3.26122 17.1085C2.02221 15.4068 1.36719 13.3915 1.36719 11.2806C1.36719 9.53453 1.82728 7.8178 2.69779 6.3163C2.88712 5.98946 2.77576 5.57129 2.44919 5.38197C2.12261 5.19264 1.70444 5.30373 1.51485 5.63057C0.523911 7.34009 0 9.29394 0 11.2806C0 13.5474 0.664101 15.7181 1.92448 17.5833L0.779991 20.0979C0.670509 20.338 0.709229 20.6194 0.879059 20.8213C1.04889 21.0232 1.31966 21.1092 1.57494 21.0424L4.48208 20.2824C6.43085 21.7546 8.83118 22.5615 11.2806 22.5615C11.8139 22.5615 12.3381 22.5233 12.8516 22.4515V28.4375C12.8516 30.0204 14.1394 31.3086 15.7224 31.3086H25.3907L29.7136 34.8454C29.8381 34.9474 29.9916 34.9997 30.1465 34.9997C30.2461 34.9997 30.346 34.9781 30.4391 34.934C30.6779 34.8208 30.8301 34.5805 30.8301 34.3161V31.3086H32.1289C33.7121 31.3086 35 30.0204 35 28.4375V15.1758C35 13.5926 33.7121 12.3047 32.1289 12.3047V12.3047ZM33.6328 28.4375C33.6328 29.2666 32.9583 29.9414 32.1289 29.9414H30.1465C29.7689 29.9414 29.4629 30.2474 29.4629 30.625V32.8736L26.0866 30.1112C25.9005 29.9414 25.7376 29.9414 25.3715 29.9414H15.7224C14.8933 29.9414 14.2188 29.2666 14.2188 28.4375V22.1725C18.2624 21.0806 21.4128 17.7924 22.3055 13.6719H32.1289C32.9583 13.6719 33.6328 14.3464 33.6328 15.1758V28.4375Z" fill="#62B0DF"/>
<path d="M27.3275 23.8305C27.5592 23.7212 27.72 23.486 27.72 23.2126C27.72 22.8352 27.414 22.529 27.0364 22.529H26.7566L24.552 17.5045C24.4428 17.2559 24.1971 17.0955 23.9258 17.0955C23.6545 17.0955 23.4088 17.2559 23.2999 17.5045L21.0953 22.529H20.8154C20.4379 22.529 20.1318 22.8352 20.1318 23.2126C20.1318 23.486 20.2926 23.7212 20.5244 23.8305L19.7033 25.7018C19.5516 26.0476 19.7089 26.4508 20.0544 26.6025C20.4002 26.7542 20.8034 26.5969 20.9551 26.2511L21.9885 23.8961H25.8633L26.8967 26.2511C27.0092 26.5074 27.2599 26.6602 27.5232 26.6602C27.6148 26.6602 27.708 26.6417 27.7974 26.6025C28.143 26.4508 28.3005 26.0476 28.1486 25.7018L27.3275 23.8305ZM22.5882 22.529L23.9258 19.4806L25.2633 22.529H22.5882Z" fill="#62B0DF"/>
<path d="M3.78727 4.4706C3.96698 4.4706 4.14322 4.39743 4.27059 4.27032C4.3977 4.14322 4.47086 3.96698 4.47086 3.787C4.47086 3.60729 4.3977 3.43105 4.27059 3.30368C4.14322 3.17657 3.96698 3.10341 3.78727 3.10341C3.60676 3.10341 3.43105 3.17657 3.30395 3.30368C3.17684 3.43105 3.10368 3.60729 3.10368 3.787C3.10368 3.96698 3.17684 4.14322 3.30395 4.27032C3.43105 4.3977 3.60729 4.4706 3.78727 4.4706Z" fill="#62B0DF"/>
<path d="M7.20016 15.4409C6.86905 15.6225 6.74782 16.038 6.9294 16.3691C7.05383 16.5958 7.28802 16.7243 7.52941 16.7243C7.6405 16.7243 7.75318 16.6971 7.85759 16.6399C9.38206 15.8038 10.5548 14.5034 11.2408 12.9699C11.9271 14.5034 13.0996 15.8038 14.6241 16.6399C14.7285 16.6971 14.8412 16.7243 14.9523 16.7243C15.1937 16.7243 15.4279 16.5958 15.5523 16.3691C15.7339 16.038 15.6126 15.6225 15.2815 15.4409C13.497 14.4623 12.2959 12.7132 11.9976 10.737H15.0327C15.4102 10.737 15.7162 10.431 15.7162 10.0534C15.7162 9.6758 15.4102 9.36978 15.0327 9.36978H11.9244V6.52112C11.9244 6.14354 11.6184 5.83752 11.2408 5.83752C10.8633 5.83752 10.5573 6.14354 10.5573 6.52112V9.36978H8.08777C7.71019 9.36978 7.40417 9.6758 7.40417 10.0534C7.40417 10.431 7.71019 10.737 8.08777 10.737H10.4841C10.1858 12.7132 8.98472 14.4626 7.20016 15.4409Z" fill="#62B0DF"/>
</g>
<defs>
<clipPath id="clip0">
<rect width="35" height="35" fill="white"/>
</clipPath>
</defs>
</svg>
