<svg width="43" height="43" viewBox="0 0 43 43" fill="none" xmlns="http://www.w3.org/2000/svg">
<g clip-path="url(#clip0)">
<path d="M37.3357 16.0529H17.3474C16.9995 16.0529 16.7175 16.3349 16.7175 16.6828C16.7175 17.0306 16.9995 17.3127 17.3474 17.3127H37.3357C37.6835 17.3127 37.9656 17.0306 37.9656 16.6828C37.9656 16.3349 37.6835 16.0529 37.3357 16.0529Z" fill="#0BCAD4"/>
<path d="M37.3357 20.868H17.3474C16.9995 20.868 16.7175 21.15 16.7175 21.4978C16.7175 21.8457 16.9995 22.1277 17.3474 22.1277H37.3357C37.6835 22.1277 37.9656 21.8457 37.9656 21.4978C37.9656 21.15 37.6835 20.868 37.3357 20.868Z" fill="#0BCAD4"/>
<path d="M37.3357 25.683H17.3474C16.9995 25.683 16.7175 25.965 16.7175 26.3129C16.7175 26.6608 16.9995 26.9428 17.3474 26.9428H37.3357C37.6835 26.9428 37.9656 26.6608 37.9656 26.3129C37.9656 25.965 37.6835 25.683 37.3357 25.683Z" fill="#0BCAD4"/>
<path d="M39.3364 10.5442H15.3466C13.3266 10.5442 11.6831 12.1876 11.6831 14.2077V29.2927C11.6831 31.3128 13.3265 32.9563 15.3466 32.9563H32.1612C32.341 32.9563 32.5081 33.0372 32.6196 33.1784L38.0496 40.0527C38.2636 40.3237 38.5759 40.4713 38.9028 40.4713C39.0243 40.4713 39.148 40.4509 39.2693 40.4087C39.7166 40.2534 40.0057 39.847 40.0057 39.3734V32.8937C41.7043 32.5765 43 31.0747 43 29.2927V14.2076C43 12.1876 41.3566 10.5442 39.3364 10.5442ZM41.7402 29.2927C41.7402 30.601 40.6759 31.6789 39.3677 31.6955C39.023 31.7 38.7459 31.9807 38.7459 32.3254V38.9018L33.6082 32.3975C33.2564 31.9519 32.729 31.6965 32.1612 31.6965H15.3466C14.0212 31.6965 12.9428 30.6181 12.9428 29.2927V14.2076C12.9428 12.8822 14.0211 11.8038 15.3466 11.8038H39.3364C40.6619 11.8038 41.7402 12.8822 41.7402 14.2076V29.2927Z" fill="#0BCAD4"/>
<path d="M9.27977 20.9592C8.84893 21.0204 8.4631 21.2422 8.19335 21.5837L3.86639 27.0616V21.5715C3.86639 21.2267 3.58924 20.946 3.24457 20.9416C2.15017 20.9277 1.25977 20.0259 1.25977 18.9314V5.79955C1.25977 4.6907 2.16193 3.78854 3.27077 3.78854H24.1546C25.2634 3.78854 26.1656 4.6907 26.1656 5.79955V8.22939C26.1656 8.57725 26.4476 8.85927 26.7955 8.85927C27.1433 8.85927 27.4253 8.57725 27.4253 8.22939V5.79955C27.4253 3.99607 25.9581 2.52878 24.1546 2.52878H3.27077C1.46729 2.52878 0 3.99607 0 5.79955V18.9314C0 20.4992 1.12295 21.8237 2.60671 22.1333V27.707C2.60671 28.1544 2.87982 28.5385 3.3026 28.6853C3.41724 28.7251 3.53398 28.7444 3.64887 28.7444C3.95768 28.7444 4.25288 28.6048 4.45503 28.3489L9.18201 22.3645C9.25021 22.2781 9.34788 22.222 9.45689 22.2065C9.80131 22.1576 10.0409 21.8387 9.99196 21.4943C9.94308 21.1499 9.62469 20.9101 9.27977 20.9592Z" fill="#0BCAD4"/>
</g>
<defs>
<clipPath id="clip0">
<rect width="43" height="43" fill="white"/>
</clipPath>
</defs>
</svg>
