<svg width="35" height="35" viewBox="0 0 35 35" fill="none" xmlns="http://www.w3.org/2000/svg">
<path d="M12.197 13.3106C15.8668 13.3106 18.8524 10.3251 18.8524 6.6553C18.8524 2.9855 15.8668 0 12.197 0C8.52716 0 5.54166 2.9855 5.54166 6.6553C5.54166 10.3251 8.52716 13.3106 12.197 13.3106ZM12.197 3.18182C14.1123 3.18182 15.6706 4.73995 15.6706 6.6553C15.6706 8.57065 14.1123 10.1288 12.197 10.1288C10.2816 10.1288 8.72338 8.57065 8.72338 6.6553C8.72338 4.73995 10.2816 3.18182 12.197 3.18182Z" fill="#62B0DF"/>
<path d="M34.534 19.062L29.7259 14.2539C29.4276 13.9556 29.023 13.7879 28.601 13.7879C28.1791 13.7879 27.7744 13.9556 27.4761 14.2539L21.234 20.496C18.9399 17.9612 15.6802 16.4925 12.197 16.4925C5.47156 16.4925 0 21.9641 0 28.6895C0 29.5681 0.712303 30.2804 1.59091 30.2804H13.7879V33.4091C13.7879 34.2877 14.5002 35 15.3788 35H20.1868C20.6087 35 21.0134 34.8323 21.3117 34.534L34.534 21.3118C35.1553 20.6905 35.1553 19.6833 34.534 19.062ZM12.197 19.6742C14.824 19.6742 17.2785 20.8054 18.9795 22.7504L14.6315 27.0985H3.32235C4.07602 22.8837 7.76883 19.6742 12.197 19.6742ZM19.5279 31.8182H16.9697V29.26L22.1907 24.0388C22.2003 24.0296 22.2096 24.0202 22.2188 24.0107L28.6009 17.6287L31.1591 20.1868L19.5279 31.8182Z" fill="#62B0DF"/>
</svg>
