<svg width="35" height="35" viewBox="0 0 35 35" fill="none" xmlns="http://www.w3.org/2000/svg">
<g clip-path="url(#clip0)">
<path d="M7.83377 34.2923C7.4503 34.2923 7.06951 34.1726 6.74453 33.9376C6.13916 33.4989 5.85637 32.7448 6.02113 32.0171L8.27277 22.0986L0.636622 15.4019C0.0753125 14.9119 -0.139117 14.1359 0.0913348 13.4258C0.321786 12.7171 0.948786 12.2154 1.69115 12.1467L11.7947 11.2295L15.7893 1.88135C16.0838 1.19454 16.7546 0.750992 17.4999 0.750992C18.2452 0.750992 18.916 1.19454 19.2106 1.87975L23.2051 11.2295L33.3071 12.1467C34.0511 12.2138 34.6781 12.7171 34.9085 13.4258C35.139 14.1346 34.9259 14.9119 34.3646 15.4019L26.7284 22.0973L28.9801 32.0155C29.1451 32.7448 28.862 33.4989 28.2569 33.9363C27.6532 34.3737 26.848 34.4074 26.2122 34.0252L17.4999 28.8188L8.78762 34.0282C8.49308 34.2031 8.16489 34.2923 7.83377 34.2923V34.2923ZM17.4999 26.576C17.831 26.576 18.159 26.6649 18.4538 26.8398L26.6761 31.7576L24.551 22.3961C24.3993 21.7298 24.6255 21.0342 25.1403 20.5835L32.3506 14.2601L22.8113 13.3938C22.1244 13.331 21.5338 12.8992 21.2654 12.2664L17.4999 3.44458L13.7299 12.2677C13.4645 12.8963 12.8738 13.3281 12.1886 13.3909L2.64793 14.2571L9.8579 20.5805C10.3743 21.0326 10.6003 21.7269 10.4472 22.3948L8.32378 31.756L16.5461 26.8398C16.8406 26.6649 17.1688 26.576 17.4999 26.576V26.576ZM11.7175 11.4103C11.7175 11.4103 11.7175 11.4119 11.7159 11.4132L11.7175 11.4103ZM23.2794 11.406L23.281 11.4089C23.281 11.4073 23.281 11.4073 23.2794 11.406Z" fill="#62B0DF"/>
</g>
<defs>
<clipPath id="clip0">
<rect width="35" height="35" fill="white"/>
</clipPath>
</defs>
</svg>
