<svg width="12" height="14" viewBox="0 0 12 14" fill="none" xmlns="http://www.w3.org/2000/svg">
<g clip-path="url(#clip0)">
<path d="M11.9687 5.37032C11.8902 5.08684 11.6747 4.88549 11.4197 4.85868L7.95614 4.49178L6.58657 0.751888C6.48558 0.477803 6.2556 0.300385 6.00007 0.300385C5.74454 0.300385 5.51455 0.477803 5.41356 0.752529L4.04399 4.49178L0.579909 4.85868C0.325386 4.88613 0.110414 5.08684 0.0314019 5.37032C-0.0476102 5.65381 0.0253593 5.96474 0.2179 6.16075L2.83592 8.83944L2.06393 12.8068C2.00744 13.0985 2.10449 13.4001 2.31195 13.575C2.42346 13.669 2.55393 13.7169 2.68549 13.7169C2.79893 13.7169 2.91145 13.6812 3.01244 13.6107L6.00007 11.5275L8.9866 13.6107C9.20514 13.7641 9.48063 13.7501 9.68763 13.575C9.89519 13.3996 9.99215 13.0979 9.93566 12.8068L9.16366 8.83944L11.7817 6.16128C11.9742 5.96474 12.0477 5.65434 11.9687 5.37032V5.37032Z" fill="#FFC107"/>
</g>
<defs>
<clipPath id="clip0">
<rect width="12" height="14" fill="white"/>
</clipPath>
</defs>
</svg>
