<svg width="64" height="74" viewBox="0 0 64 74" fill="none" xmlns="http://www.w3.org/2000/svg">
<g clip-path="url(#clip0)">
<path d="M55.7561 62.9333C60.3232 62.9333 64 59.3178 64 54.8268V8.10651C64 3.6155 60.3232 0 55.7561 0H8.24391C3.67679 0 0 3.6155 0 8.10651V54.8268C0 59.3178 3.67679 62.9333 8.24391 62.9333H37.825L37.8251 74L50.625 62.9333L55.7561 62.9333Z" fill="#62B0DF"/>
<path d="M43.404 9.09781C42.2001 9.09731 40.9806 9.22376 39.948 9.47148C36.946 10.1917 34.3563 11.8721 32.796 14.1128C32.4372 14.6281 32.0851 15.0489 32.012 15.0489C31.9389 15.0489 31.598 14.6303 31.256 14.1207C29.1457 10.9762 25.1384 9.08781 20.62 9.10961C18.224 9.12116 16.5878 9.50587 14.404 10.5689C11.5557 11.9554 9.43866 14.0825 8.02001 16.9841C7.02195 19.0255 6.67789 20.3255 6.54401 22.5419C6.31644 26.3092 7.43461 30.2599 9.78401 34.2397H16.608C16.7291 34.24 16.8473 34.2762 16.9472 34.3435C17.0471 34.4109 17.1241 34.5063 17.168 34.6173L17.668 35.8799L18.076 34.7195C18.1172 34.6036 18.1939 34.5031 18.2957 34.432C18.3974 34.3608 18.5191 34.3225 18.644 34.3223H20.364L22.052 28.1233C22.0865 27.9975 22.1621 27.8863 22.2674 27.807C22.3726 27.7277 22.5014 27.6847 22.634 27.6847C22.7666 27.6847 22.8954 27.7277 23.0007 27.807C23.1059 27.8863 23.1816 27.9975 23.216 28.1233L24.828 34.0351H26.536C26.6808 34.0352 26.8206 34.0866 26.9301 34.1797C27.0395 34.2729 27.1112 34.4017 27.132 34.5425L27.308 35.7225L28.836 14.5179C28.8466 14.3706 28.9128 14.2325 29.0215 14.1306C29.1303 14.0288 29.2738 13.9705 29.424 13.9673C29.5764 13.9643 29.7243 14.0183 29.8378 14.1183C29.9514 14.2183 30.0222 14.3569 30.036 14.5061L32.668 43.4279L33.888 34.8611C33.908 34.7196 33.9793 34.5898 34.0888 34.4959C34.1983 34.4019 34.3387 34.35 34.484 34.3498H38.732L41.996 28.7841C42.0489 28.694 42.125 28.6192 42.2166 28.5672C42.3082 28.5151 42.4122 28.4877 42.518 28.4877C42.6238 28.4877 42.7278 28.5151 42.8194 28.5672C42.911 28.6192 42.9871 28.694 43.04 28.7841L46.2 34.1649H54.296C55.716 31.7493 56.7111 29.3271 57.252 26.9237C57.5973 25.3895 57.5476 21.3072 57.168 19.8476C56.7479 18.2324 55.3878 15.511 54.392 14.2977C52.547 12.0497 49.6504 10.2171 46.76 9.47148C45.7967 9.223 44.6079 9.09828 43.404 9.09781ZM29.504 21.9677L28.112 41.2764C28.0998 41.4209 28.0342 41.5559 27.9276 41.656C27.821 41.7561 27.6808 41.8144 27.5335 41.8197C27.3862 41.825 27.242 41.7771 27.1282 41.6849C27.0145 41.5928 26.9389 41.4629 26.916 41.3197L26.016 35.223H24.368C24.2348 35.2233 24.1053 35.1803 23.9997 35.1006C23.894 35.0209 23.8182 34.909 23.784 34.7825L22.636 30.5659L21.408 35.0696C21.3731 35.1954 21.2969 35.3064 21.1913 35.3853C21.0858 35.4643 20.9566 35.5068 20.824 35.5062H19.076L18.268 37.7915C18.2277 37.9063 18.1524 38.0062 18.0524 38.0775C17.9524 38.1489 17.8325 38.1883 17.709 38.1905C17.5855 38.1926 17.4642 38.1574 17.3618 38.0895C17.2593 38.0217 17.1805 37.9245 17.136 37.8111L16.192 35.4236H10.524C14.4053 41.3886 21.0167 47.3913 29.972 52.923C31.0404 53.5829 31.9638 54.1227 32.028 54.1227C32.2263 54.1227 35.9221 51.7965 38.084 50.3113C45.0244 45.5432 50.2517 40.4722 53.564 35.3489H45.852C45.7467 35.3487 45.6432 35.3213 45.552 35.2696C45.4608 35.2178 45.3849 35.1434 45.332 35.0539L42.52 30.267L39.6 35.2387C39.5473 35.3296 39.471 35.4051 39.379 35.4576C39.2869 35.5102 39.1824 35.5378 39.076 35.5377H35.012L33.132 48.7183C33.1106 48.8613 33.0367 48.9918 32.9243 49.085C32.8119 49.1782 32.6687 49.2278 32.5216 49.2244C32.3746 49.221 32.2339 49.1649 32.1261 49.0666C32.0182 48.9683 31.9506 48.8346 31.936 48.6907L29.504 21.9677ZM54.096 34.4953C54.0119 34.6345 53.9269 34.7732 53.84 34.9123C53.927 34.7735 54.0119 34.6342 54.096 34.4953ZM53.84 34.9123C53.7498 35.0563 53.6612 35.2007 53.568 35.3449C53.6609 35.2012 53.7502 35.056 53.84 34.9123ZM10.144 34.8297C10.2571 35.0119 10.3738 35.1941 10.492 35.3764C10.374 35.1946 10.2577 35.0109 10.144 34.8297Z" fill="white"/>
</g>
<defs>
<clipPath id="clip0">
<rect width="64" height="74" fill="white"/>
</clipPath>
</defs>
</svg>
